<svg version="1.0" xmlns="http://www.w3.org/2000/svg" width="500.000000pt" height="500.000000pt"
    viewBox="0 0 500.000000 500.000000" preserveAspectRatio="xMidYMid meet">

    <g transform="translate(0.000000,500.000000) scale(0.100000,-0.100000)" fill="#D71D1E" stroke="none">
        <path d="M890 4316 c0 -32 2 -34 45 -38 98 -12 159 -86 176 -216 12 -98 11
-2472 -1 -2551 -18 -108 -71 -180 -143 -195 -15 -3 -38 -8 -52 -11 -20 -4 -25
-11 -25 -35 l0 -30 605 0 605 0 0 30 c0 26 -4 30 -37 35 -86 15 -139 56 -170
135 -16 41 -18 100 -21 733 -1 378 1 687 5 687 4 0 204 -347 443 -771 292
-519 445 -780 467 -800 18 -15 33 -35 33 -44 0 -13 37 -15 298 -15 165 0 381
3 480 7 l182 6 0 27 c0 24 -6 28 -57 43 -80 22 -112 59 -227 259 l-96 167 0
113 0 113 136 265 c333 651 378 736 397 757 11 12 35 27 53 33 19 7 34 18 34
26 0 12 -41 14 -255 14 -214 0 -255 -2 -255 -14 0 -8 15 -19 34 -26 46 -15 67
-40 125 -157 37 -74 51 -114 51 -144 0 -35 -28 -96 -151 -338 -83 -163 -154
-299 -157 -303 -11 -11 -445 841 -445 873 0 34 26 67 57 71 11 2 21 10 21 18
0 13 -32 16 -205 20 l-204 5 -143 247 -143 248 92 126 c112 155 184 234 246
271 40 24 58 28 122 28 61 0 83 -5 120 -25 79 -44 113 -147 76 -233 -17 -41
-74 -91 -121 -107 -41 -14 -41 -21 3 -103 60 -111 193 -198 338 -219 184 -26
376 59 473 210 99 154 107 403 20 580 -88 180 -272 270 -529 259 -367 -15
-521 -163 -1201 -1154 -57 -84 -107 -153 -111 -153 -5 0 -8 229 -8 508 0 554
3 590 57 660 29 39 93 71 141 72 30 0 32 2 32 35 l0 35 -605 0 -605 0 0 -34z" />
    </g>
</svg>